<svg xmlns="http://www.w3.org/2000/svg" width="20" height="32" fill-rule="evenodd" xmlns:v="https://vecta.io/nano"><path d="M6.759 16.482a3.54 3.54 0 0 0 3.187.972 3.55 3.55 0 0 0-.973-3.187 3.54 3.54 0 0 0-3.188-.972c-.216 1.118.107 2.32.973 3.187m4.55-4.637c-1.082 1.082-1.488 2.588-1.215 3.984a4.44 4.44 0 0 0 3.984-1.216 4.43 4.43 0 0 0 1.215-3.985c-1.398-.27-2.901.134-3.984 1.216M8.581 7.33c0 1.117.568 2.103 1.431 2.682a3.23 3.23 0 0 0 1.429-2.681c0-1.116-.567-2.102-1.431-2.682A3.23 3.23 0 0 0 8.581 7.33" fill="#69bb89"/><path d="M13.498 26.637a1.34 1.34 0 1 0 0-2.681H6.525a1.34 1.34 0 1 0 0 2.681 1.34 1.34 0 1 0 0 2.682h6.973a1.34 1.34 0 1 0 0-2.682" fill="#6e5938"/><path d="M13.389 24.631a.75.75 0 0 1 .745.749.75.75 0 0 1-.745.749H9.12a.591.591 0 1 0 0 1.182h4.269a.75.75 0 0 1 .745.749.75.75 0 0 1-.745.749H6.453a.75.75 0 0 1-.745-.749.75.75 0 0 1 .745-.749.591.591 0 1 0 0-1.182.75.75 0 0 1-.745-.749.75.75 0 0 1 .745-.749h6.936zm-2.056 5.438a.75.75 0 0 1-.745.749H9.254a.75.75 0 0 1-.745-.749v-.079h2.824v.079zM9.936 5.55c.516.488.815 1.171.815 1.896s-.299 1.406-.815 1.894a2.6 2.6 0 0 1-.815-1.895 2.61 2.61 0 0 1 .815-1.895zM9.34 16.98l-.159.004a2.95 2.95 0 0 1-2.104-.876 3 3 0 0 1-.868-2.274 2.95 2.95 0 0 1 2.264.871c.601.606.912 1.433.868 2.274zm4.535 4.33a.59.59 0 0 0 .397.734.59.59 0 0 0 .731-.399c.454-1.544 1.267-2.829 2.129-4.189 1.333-2.103 2.711-4.278 2.711-7.486 0-5.497-4.451-9.97-9.922-9.97S0 4.473 0 9.97c0 3.208 1.378 5.383 2.711 7.486 1.244 1.964 2.419 3.825 2.482 6.478a1.92 1.92 0 0 0-.118 2.785c-.335.348-.543.819-.543 1.341a1.93 1.93 0 0 0 1.921 1.931h.88v.079A1.93 1.93 0 0 0 9.254 32h1.334a1.93 1.93 0 0 0 1.921-1.93v-.079h.88a1.93 1.93 0 0 0 1.921-1.931c0-.522-.208-.993-.544-1.341.334-.347.544-.818.544-1.338a1.93 1.93 0 0 0-1.921-1.931h-2.87v-8.432c0-.008.005-.014.005-.022.008-1.04.416-2.018 1.148-2.754.825-.829 1.965-1.239 3.118-1.139a3.95 3.95 0 0 1-1.133 3.135c-.46.462-1.007.792-1.626.982a.59.59 0 0 0-.391.737.59.59 0 0 0 .562.419.58.58 0 0 0 .171-.026 5.11 5.11 0 0 0 2.114-1.276c1.201-1.207 1.724-2.929 1.398-4.606a.59.59 0 0 0-.466-.467c-1.67-.324-3.382.203-4.58 1.407a5.09 5.09 0 0 0-.321.355V10.39c.884-.716 1.408-1.792 1.408-2.942a3.79 3.79 0 0 0-1.663-3.14c-.198-.135-.459-.135-.658.001a3.79 3.79 0 0 0-1.661 3.138 3.78 3.78 0 0 0 1.399 2.935v3.536c-.014-.015-.025-.031-.04-.045-.785-.788-1.827-1.222-2.936-1.222a4.14 4.14 0 0 0-.799.078.59.59 0 0 0-.465.468 4.19 4.19 0 0 0 1.141 3.75c.784.788 1.827 1.222 2.936 1.222.054 0 .109-.005.163-.008v5.291h-2.89c-.035 0-.068.009-.104.011-.184-2.747-1.433-4.724-2.647-6.638-1.299-2.051-2.527-3.988-2.527-6.852 0-4.846 3.923-8.788 8.746-8.788s8.746 3.942 8.746 8.788c0 2.864-1.228 4.801-2.527 6.852-.867 1.369-1.764 2.785-2.265 4.488h0zM5.651 3.684C3.568 5.119 2.324 7.461 2.324 9.949c0 .33.274.598.611.598s.611-.268.611-.598c0-2.1 1.05-4.077 2.808-5.287a.59.59 0 0 0 .148-.834.62.62 0 0 0-.852-.145" fill="#000"/></svg>